<svg width="15" height="15" viewBox="0 0 15 15" fill="none" xmlns="http://www.w3.org/2000/svg">
<path d="M10.2197 0.71967C10.5126 0.426777 10.9874 0.426777 11.2803 0.71967L14.2803 3.71967C14.5732 4.01256 14.5732 4.48744 14.2803 4.78033L4.53033 14.5303C4.38968 14.671 4.19891 14.75 4 14.75H1C0.585786 14.75 0.25 14.4142 0.25 14V11C0.25 10.8011 0.329018 10.6103 0.46967 10.4697L7.96951 2.96983L10.2197 0.71967ZM8.5 4.56066L1.75 11.3107V13.25H3.68934L10.4393 6.5L8.5 4.56066ZM11.5 5.43934L12.6893 4.25L10.75 2.31066L9.56066 3.5L11.5 5.43934Z" fill="current"/>
</svg>
