<svg width="115" height="18" viewBox="0 0 115 18" fill="none" xmlns="http://www.w3.org/2000/svg">
<path d="M19.056 17H15.928V5.569L11.236 17H8.591L3.899 5.661V17H0.863V0.692999H5.049L9.948 12.469L14.732 0.692999H19.056V17ZM25.5235 13.711C26.0908 14.2783 26.7732 14.562 27.5705 14.562C28.3678 14.562 29.0425 14.2783 29.5945 13.711C30.1618 13.1437 30.4455 12.354 30.4455 11.342C30.4455 10.33 30.1618 9.54033 29.5945 8.973C29.0425 8.40567 28.3678 8.122 27.5705 8.122C26.7732 8.122 26.0908 8.40567 25.5235 8.973C24.9715 9.54033 24.6955 10.33 24.6955 11.342C24.6955 12.354 24.9715 13.1437 25.5235 13.711ZM23.3155 7.041C24.4502 5.90633 25.8685 5.339 27.5705 5.339C29.2725 5.339 30.6832 5.90633 31.8025 7.041C32.9372 8.17567 33.5045 9.60933 33.5045 11.342C33.5045 13.0747 32.9372 14.5083 31.8025 15.643C30.6832 16.7777 29.2725 17.345 27.5705 17.345C25.8685 17.345 24.4502 16.7777 23.3155 15.643C22.1962 14.5083 21.6365 13.0747 21.6365 11.342C21.6365 9.60933 22.1962 8.17567 23.3155 7.041ZM46.7061 0.347999V14.953C46.7061 15.7043 46.7368 16.3867 46.7981 17H43.8771C43.8005 16.6167 43.7621 16.1797 43.7621 15.689C43.5015 16.1643 43.0875 16.5477 42.5201 16.839C41.9681 17.1303 41.3241 17.276 40.5881 17.276C38.9781 17.276 37.6518 16.7163 36.6091 15.597C35.5818 14.4623 35.0681 13.0363 35.0681 11.319C35.0681 9.64767 35.5741 8.24467 36.5861 7.11C37.6135 5.97533 38.9168 5.408 40.4961 5.408C42.1215 5.408 43.1871 5.87567 43.6931 6.811V0.347999H46.7061ZM38.1501 11.319C38.1501 12.3157 38.4108 13.1053 38.9321 13.688C39.4535 14.2553 40.1281 14.539 40.9561 14.539C41.7688 14.539 42.4358 14.2477 42.9571 13.665C43.4785 13.0823 43.7391 12.2927 43.7391 11.296C43.7391 10.3147 43.4785 9.548 42.9571 8.996C42.4358 8.42867 41.7688 8.145 40.9561 8.145C40.1435 8.145 39.4688 8.42867 38.9321 8.996C38.4108 9.56333 38.1501 10.3377 38.1501 11.319ZM57.3857 17C57.3243 16.6933 57.2937 16.287 57.2937 15.781C57.0023 16.287 56.5653 16.6703 55.9827 16.931C55.4153 17.1763 54.8097 17.299 54.1657 17.299C52.8317 17.299 51.7813 16.8773 51.0147 16.034C50.248 15.1753 49.8647 14.1097 49.8647 12.837V5.684H52.9237V12.216C52.9237 12.8907 53.1 13.4427 53.4527 13.872C53.8053 14.286 54.319 14.493 54.9937 14.493C55.653 14.493 56.1743 14.2937 56.5577 13.895C56.941 13.481 57.1327 12.9367 57.1327 12.262V5.684H60.1917V14.953C60.1917 15.6737 60.23 16.356 60.3067 17H57.3857ZM75.6922 3.706H70.5402V17H67.3432V3.706H62.1912V0.692999H75.6922V3.706ZM78.5538 13.711C79.1211 14.2783 79.8034 14.562 80.6008 14.562C81.3981 14.562 82.0728 14.2783 82.6248 13.711C83.1921 13.1437 83.4758 12.354 83.4758 11.342C83.4758 10.33 83.1921 9.54033 82.6248 8.973C82.0728 8.40567 81.3981 8.122 80.6008 8.122C79.8034 8.122 79.1211 8.40567 78.5538 8.973C78.0018 9.54033 77.7258 10.33 77.7258 11.342C77.7258 12.354 78.0018 13.1437 78.5538 13.711ZM76.3458 7.041C77.4804 5.90633 78.8988 5.339 80.6008 5.339C82.3028 5.339 83.7134 5.90633 84.8328 7.041C85.9674 8.17567 86.5348 9.60933 86.5348 11.342C86.5348 13.0747 85.9674 14.5083 84.8328 15.643C83.7134 16.7777 82.3028 17.345 80.6008 17.345C78.8988 17.345 77.4804 16.7777 76.3458 15.643C75.2264 14.5083 74.6668 13.0747 74.6668 11.342C74.6668 9.60933 75.2264 8.17567 76.3458 7.041ZM99.7364 0.347999V14.953C99.7364 15.7043 99.7671 16.3867 99.8284 17H96.9074C96.8307 16.6167 96.7924 16.1797 96.7924 15.689C96.5317 16.1643 96.1177 16.5477 95.5504 16.839C94.9984 17.1303 94.3544 17.276 93.6184 17.276C92.0084 17.276 90.6821 16.7163 89.6394 15.597C88.6121 14.4623 88.0984 13.0363 88.0984 11.319C88.0984 9.64767 88.6044 8.24467 89.6164 7.11C90.6437 5.97533 91.9471 5.408 93.5264 5.408C95.1517 5.408 96.2174 5.87567 96.7234 6.811V0.347999H99.7364ZM91.1804 11.319C91.1804 12.3157 91.4411 13.1053 91.9624 13.688C92.4837 14.2553 93.1584 14.539 93.9864 14.539C94.7991 14.539 95.4661 14.2477 95.9874 13.665C96.5087 13.0823 96.7694 12.2927 96.7694 11.296C96.7694 10.3147 96.5087 9.548 95.9874 8.996C95.4661 8.42867 94.7991 8.145 93.9864 8.145C93.1737 8.145 92.4991 8.42867 91.9624 8.996C91.4411 9.56333 91.1804 10.3377 91.1804 11.319ZM106.091 13.711C106.658 14.2783 107.341 14.562 108.138 14.562C108.935 14.562 109.61 14.2783 110.162 13.711C110.729 13.1437 111.013 12.354 111.013 11.342C111.013 10.33 110.729 9.54033 110.162 8.973C109.61 8.40567 108.935 8.122 108.138 8.122C107.341 8.122 106.658 8.40567 106.091 8.973C105.539 9.54033 105.263 10.33 105.263 11.342C105.263 12.354 105.539 13.1437 106.091 13.711ZM103.883 7.041C105.018 5.90633 106.436 5.339 108.138 5.339C109.84 5.339 111.251 5.90633 112.37 7.041C113.505 8.17567 114.072 9.60933 114.072 11.342C114.072 13.0747 113.505 14.5083 112.37 15.643C111.251 16.7777 109.84 17.345 108.138 17.345C106.436 17.345 105.018 16.7777 103.883 15.643C102.764 14.5083 102.204 13.0747 102.204 11.342C102.204 9.60933 102.764 8.17567 103.883 7.041Z" fill="#252529"/>
</svg>
